# xmcd CD database file
# Copyright (C) 1993-1998 Ti Kan
# 
# Track frame offsets:
#     150
#     16572
#     24497
#     36415
#     40437
#     68750
#     72420
#     89122
#     101695
#     112432
#     117170
#     137560
#     140550
# 
# Disc length: 2058 seconds
# 
# Revision: 1
# Processed by: cddbd v1.4b41PL1 Copyright (c) Steve Scherf et al.
# Submitted via: DiscPlay 4.0.4
# 
DISCID=c008080d
DTITLE=Cotton-Eyed Bo and the Buzzards - Breakin' the Wind
DYEAR=1900
DGENRE=
TTITLE0=The Bowman Bowles
TTITLE1=Christopher
TTITLE2=No booze
TTITLE3=Sigfried and Roy
TTITLE4=Friends in gold vases
TTITLE5=This is a test
TTITLE6=Buzzon the bottle
TTITLE7=Stump the Bottle
TTITLE8=Dressed in the dark
TTITLE9=Forest Gump
TTITLE10=Buzzy
TTITLE11=Barges?
TTITLE12=Ain't goin' to otwn till my face clears up
EXTD=
EXTT0=
EXTT1=
EXTT2=
EXTT3=
EXTT4=
EXTT5=
EXTT6=
EXTT7=
EXTT8=
EXTT9=
EXTT10=
EXTT11=
EXTT12=
PLAYORDER=
